<svg xmlns="http://www.w3.org/2000/svg" width="1000" height="1280" viewBox="0 0 1000 1280" font-family="Helvetica, Arial, sans-serif">
<defs><pattern id="hatch" width="8" height="8" patternUnits="userSpaceOnUse" patternTransform="rotate(45)"><line x1="0" y1="0" x2="0" y2="8" stroke="#8a7a66" stroke-width="2"/></pattern></defs>
<rect x="0" y="0" width="1000" height="1280" fill="#f4efe6" stroke="none" stroke-width="0" />
<text x="500.0" y="38" font-size="26" font-weight="bold" fill="#2a241e" text-anchor="middle">E01 · PART 5 · CAMERA MAPS v1 (LOCKED)</text>
<text x="500.0" y="62" font-size="13" font-weight="normal" fill="#5a4f44" text-anchor="middle">Top-down. Blue = camera pin + view cone. Purple = Marcus. Green = Elijah.</text>
<text x="40" y="100" font-size="22" font-weight="bold" fill="#2a241e" text-anchor="start">MAP 5 · Front porch (east-facing), late March 2022</text>
<text x="40" y="122" font-size="13" font-weight="normal" fill="#5a4f44" text-anchor="start" font-style="italic">Porch plate 3dc4e6e1… (ref: exterior 2aa055ef…) · front yard 24760749… · Light LK-2022-AM (9:30–10:00 AM)</text>
<polygon points="930,104 921,130 939,130" fill="#2a241e"/>
<text x="930" y="98" font-size="15" font-weight="bold" fill="#2a241e" text-anchor="middle">N</text>
<rect x="60" y="150" width="880" height="520" fill="#e6ecd9" stroke="#7d8c5a" stroke-width="2" />
<rect x="100" y="170" width="200" height="480" fill="#fbf7ef" stroke="#3a2f25" stroke-width="3" />
<text x="200" y="390" font-size="18" font-weight="bold" fill="#2a241e" text-anchor="middle">HOUSE</text>
<text x="200" y="412" font-size="11" font-weight="normal" fill="#2a241e" text-anchor="middle">(entrance hall behind wall)</text>
<rect x="300" y="170" width="170" height="480" fill="#e3d3b5" stroke="#3a2f25" stroke-width="2" />
<text x="385" y="164" font-size="11" font-weight="bold" fill="#2a241e" text-anchor="middle">EAST PORCH (roof overhead)</text>
<line x1="470" y1="170" x2="470" y2="650" stroke="#6b5a44" stroke-width="3" stroke-dasharray="2,4"/>
<text x="480" y="190" font-size="10" font-weight="normal" fill="#2a241e" text-anchor="start">spindle rail +</text>
<text x="480" y="203" font-size="10" font-weight="normal" fill="#2a241e" text-anchor="start">roof edge</text>
<line x1="300" y1="390" x2="300" y2="450" stroke="#8b3a1a" stroke-width="9"/>
<text x="290" y="425" font-size="11" font-weight="bold" fill="#8b3a1a" text-anchor="end">DOOR</text>
<rect x="470" y="390" width="50" height="60" fill="#cdb894" stroke="#3a2f25" stroke-width="2" />
<text x="495" y="470" font-size="10" font-weight="normal" fill="#2a241e" text-anchor="middle">steps</text>
<line x1="520" y1="420" x2="790" y2="420" stroke="#a17a4a" stroke-width="16"/>
<line x1="790" y1="155" x2="790" y2="665" stroke="#333" stroke-width="3" stroke-dasharray="3,5"/>
<line x1="790" y1="403" x2="790" y2="437" stroke="#e6ecd9" stroke-width="6"/>
<text x="790" y="390" font-size="11" font-weight="bold" fill="#2a241e" text-anchor="middle">GATE</text>
<rect x="820" y="150" width="120" height="520" fill="#d6d2cb" stroke="none" stroke-width="0" />
<text x="880" y="690" font-size="11" font-weight="bold" fill="#2a241e" text-anchor="middle">SIDEWALK / STREET</text>
<circle cx="650" cy="260" r="40" fill="#9db27a" opacity="0.8"/>
<text x="650" y="264" font-size="11" font-weight="normal" fill="#2a241e" text-anchor="middle">live oak</text>
<rect x="370" y="295" width="30" height="30" fill="#7a5230" stroke="#3a2f25" stroke-width="2" rx="4"/>
<text x="290" y="280" font-size="10" font-weight="bold" fill="#5b3a1e" text-anchor="end">rocker → faces street</text>
<rect x="374" y="258" width="22" height="22" fill="#b89a6a" stroke="#3a2f25" stroke-width="1.5"/>
<text x="290" y="266" font-size="10" font-weight="normal" fill="#2a241e" text-anchor="end">side table + mug</text>
<circle cx="385" cy="310" r="9" fill="#2e7d32" stroke="#222" stroke-width="1.5"/>
<text x="290" y="312" font-size="12" font-weight="bold" fill="#2e7d32" text-anchor="end">ELIJAH 77 →</text>
<circle cx="455" cy="362" r="9" fill="#6b3fa0" stroke="#222" stroke-width="1.5"/>
<text x="530" y="352" font-size="11" font-weight="bold" fill="#6b3fa0" text-anchor="start">MARCUS 31 (at rail,</text>
<text x="530" y="367" font-size="11" font-weight="bold" fill="#6b3fa0" text-anchor="start">back to the street)</text>
<line x1="745" y1="335" x2="480" y2="285" stroke="#f2b233" stroke-width="3" stroke-dasharray="8,6"/>
<line x1="745" y1="380" x2="480" y2="330" stroke="#f2b233" stroke-width="3" stroke-dasharray="8,6"/>
<line x1="745" y1="425" x2="480" y2="375" stroke="#f2b233" stroke-width="3" stroke-dasharray="8,6"/>
<circle cx="760" cy="382" r="14" fill="#f2b233" stroke="#c7861a" stroke-width="2"/>
<text x="640" y="560" font-size="12" font-weight="bold" fill="#a86b0c" text-anchor="middle">SUN ESE ~101°–106°, 27°–33° high (light travels right → left)</text>
<text x="640" y="576" font-size="11" font-weight="normal" fill="#a86b0c" text-anchor="middle" font-style="italic">low enough to reach under the porch roof to Elijah's face</text>
<path d="M730,420 L607.8,464.5 L607.8,375.5 Z" fill="#1f5fa8" fill-opacity="0.18" stroke="#1f5fa8" stroke-width="1.5"/>
<circle cx="730" cy="420" r="17" fill="#1f5fa8" stroke="white" stroke-width="2"/>
<text x="730" y="425" font-size="13" font-weight="bold" fill="white" text-anchor="middle">P1</text>
<path d="M385,620 L332.5,458.3 L437.5,458.3 Z" fill="#1f5fa8" fill-opacity="0.18" stroke="#1f5fa8" stroke-width="1.5"/>
<circle cx="385" cy="620" r="17" fill="#1f5fa8" stroke="white" stroke-width="2"/>
<text x="385" y="625" font-size="13" font-weight="bold" fill="white" text-anchor="middle">P2</text>
<path d="M325,320 L475.4,265.3 L475.4,374.7 Z" fill="#1f5fa8" fill-opacity="0.18" stroke="#1f5fa8" stroke-width="1.5"/>
<circle cx="325" cy="320" r="17" fill="#1f5fa8" stroke="white" stroke-width="2"/>
<text x="325" y="325" font-size="13" font-weight="bold" fill="white" text-anchor="middle">P3</text>
<path d="M450,285 L386.6,314.6 L380.3,278.9 Z" fill="#1f5fa8" fill-opacity="0.18" stroke="#1f5fa8" stroke-width="1.5"/>
<circle cx="450" cy="285" r="17" fill="#1f5fa8" stroke="white" stroke-width="2"/>
<text x="450" y="290" font-size="13" font-weight="bold" fill="white" text-anchor="middle">P4</text>
<path d="M325,390 L449.7,326.4 L464.8,397.3 Z" fill="#1f5fa8" fill-opacity="0.18" stroke="#1f5fa8" stroke-width="1.5"/>
<circle cx="325" cy="390" r="17" fill="#1f5fa8" stroke="white" stroke-width="2"/>
<text x="325" y="395" font-size="13" font-weight="bold" fill="white" text-anchor="middle">P5</text>
<text x="500" y="730" font-size="12" font-weight="normal" fill="#5a4f44" text-anchor="middle" font-style="italic">Creak map (LOCKED): 1 = bottom step, 2 = top step (PART 3) · 3 = board at the door (PART 5) · 4 = saved for later</text>
<text x="40" y="780" font-size="22" font-weight="bold" fill="#2a241e" text-anchor="start">MAP 6 · Condo kitchen, Atlanta, January 2023, ~10:30 PM</text>
<text x="40" y="802" font-size="13" font-weight="normal" fill="#5a4f44" text-anchor="start" font-style="italic">Night plate 8735e56d… (from dusk f5da915e…) · Light LK-ATL-NIGHT</text>
<rect x="250" y="830" width="500" height="300" fill="#fbf7ef" stroke="#3a2f25" stroke-width="3" />
<rect x="255" y="835" width="490" height="50" fill="#4a4a4f" stroke="#3a2f25" stroke-width="2" />
<text x="500" y="865" font-size="12" font-weight="bold" fill="white" text-anchor="middle">BACK COUNTER · sink under window · stove</text>
<line x1="420" y1="830" x2="580" y2="830" stroke="#2d4f7c" stroke-width="9"/>
<text x="500" y="822" font-size="11" font-weight="bold" fill="#2d4f7c" text-anchor="middle">WINDOW (city at night, cool glow)</text>
<rect x="360" y="950" width="280" height="55" fill="#dcd6cc" stroke="#3a2f25" stroke-width="2" />
<text x="500" y="983" font-size="12" font-weight="bold" fill="#2a241e" text-anchor="middle">QUARTZITE ISLAND</text>
<circle cx="500" cy="977" r="60" fill="#f2b233" opacity="0.18"/>
<text x="500" y="940" font-size="11" font-weight="bold" fill="#a86b0c" text-anchor="middle">pendant (2700K)</text>
<line x1="250" y1="1130" x2="750" y2="1130" stroke="#f4efe6" stroke-width="6"/>
<text x="500" y="1155" font-size="11" font-weight="normal" fill="#5a4f44" text-anchor="middle" font-style="italic">opens to the living room</text>
<circle cx="620" cy="898" r="9" fill="#6b3fa0" stroke="#222" stroke-width="1.5"/>
<text x="760" y="910" font-size="11" font-weight="bold" fill="#6b3fa0" text-anchor="start">MARCUS 32 (leaning</text>
<text x="760" y="925" font-size="11" font-weight="bold" fill="#6b3fa0" text-anchor="start">back on the counter)</text>
<path d="M560,1110 L521.2,965.1 L646.0,987.1 Z" fill="#1f5fa8" fill-opacity="0.18" stroke="#1f5fa8" stroke-width="1.5"/>
<circle cx="560" cy="1110" r="17" fill="#1f5fa8" stroke="white" stroke-width="2"/>
<text x="560" y="1115" font-size="13" font-weight="bold" fill="white" text-anchor="middle">K1</text>
<path d="M600,1040 L597.9,920.0 L643.0,928.0 Z" fill="#1f5fa8" fill-opacity="0.18" stroke="#1f5fa8" stroke-width="1.5"/>
<circle cx="600" cy="1040" r="17" fill="#1f5fa8" stroke="white" stroke-width="2"/>
<text x="600" y="1045" font-size="13" font-weight="bold" fill="white" text-anchor="middle">K2</text>
<path d="M690,915 L630.0,915.0 L638.0,885.0 Z" fill="#1f5fa8" fill-opacity="0.18" stroke="#1f5fa8" stroke-width="1.5"/>
<circle cx="690" cy="915" r="17" fill="#1f5fa8" stroke="white" stroke-width="2"/>
<text x="690" y="920" font-size="13" font-weight="bold" fill="white" text-anchor="middle">K4</text>
<path d="M600,1042 L560,1110" stroke="#1f5fa8" stroke-width="3" stroke-dasharray="4,4" fill="none"/>
<text x="470" y="1100" font-size="11" font-weight="bold" fill="#1f5fa8" text-anchor="end">K3 = pull-out path K2 → K1 (final shot)</text>
<text x="500" y="1230" font-size="12" font-weight="normal" fill="#2a241e" text-anchor="middle">Hand match: S10 (hand on porch rail) → S11 (hand on counter edge, K4), same spot in the frame.</text>
</svg>
